<svg width="271" height="37" viewBox="0 0 271 37" fill="none" xmlns="http://www.w3.org/2000/svg">
<path d="M0.0340909 36V1.09091H13.8068C16.4545 1.09091 18.7102 1.59659 20.5739 2.60795C22.4375 3.60795 23.858 5 24.8352 6.78409C25.8239 8.55682 26.3182 10.6023 26.3182 12.9205C26.3182 15.2386 25.8182 17.2841 24.8182 19.0568C23.8182 20.8295 22.3693 22.2102 20.4716 23.1989C18.5852 24.1875 16.3011 24.6818 13.6193 24.6818H4.84091V18.767H12.4261C13.8466 18.767 15.017 18.5227 15.9375 18.0341C16.8693 17.5341 17.5625 16.8466 18.017 15.9716C18.483 15.0852 18.7159 14.0682 18.7159 12.9205C18.7159 11.7614 18.483 10.75 18.017 9.88636C17.5625 9.01136 16.8693 8.33523 15.9375 7.85795C15.0057 7.36932 13.8239 7.125 12.392 7.125H7.41477V36H0.0340909ZM63.1918 18.5455C63.1918 22.3523 62.4702 25.5909 61.027 28.2614C59.5952 30.9318 57.6406 32.9716 55.1634 34.3807C52.6974 35.7784 49.9247 36.4773 46.8452 36.4773C43.7429 36.4773 40.9588 35.7727 38.4929 34.3636C36.027 32.9545 34.0781 30.9148 32.6463 28.2443C31.2145 25.5739 30.4986 22.3409 30.4986 18.5455C30.4986 14.7386 31.2145 11.5 32.6463 8.82955C34.0781 6.15909 36.027 4.125 38.4929 2.72727C40.9588 1.31818 43.7429 0.613635 46.8452 0.613635C49.9247 0.613635 52.6974 1.31818 55.1634 2.72727C57.6406 4.125 59.5952 6.15909 61.027 8.82955C62.4702 11.5 63.1918 14.7386 63.1918 18.5455ZM55.7088 18.5455C55.7088 16.0795 55.3395 14 54.6009 12.3068C53.8736 10.6136 52.8452 9.32955 51.5156 8.45455C50.1861 7.57955 48.6293 7.14205 46.8452 7.14205C45.0611 7.14205 43.5043 7.57955 42.1747 8.45455C40.8452 9.32955 39.8111 10.6136 39.0724 12.3068C38.3452 14 37.9815 16.0795 37.9815 18.5455C37.9815 21.0114 38.3452 23.0909 39.0724 24.7841C39.8111 26.4773 40.8452 27.7614 42.1747 28.6364C43.5043 29.5114 45.0611 29.9489 46.8452 29.9489C48.6293 29.9489 50.1861 29.5114 51.5156 28.6364C52.8452 27.7614 53.8736 26.4773 54.6009 24.7841C55.3395 23.0909 55.7088 21.0114 55.7088 18.5455ZM68.6591 36V1.09091H82.4318C85.0682 1.09091 87.3182 1.5625 89.1818 2.50568C91.0568 3.4375 92.483 4.76136 93.4602 6.47727C94.4489 8.18182 94.9432 10.1875 94.9432 12.4943C94.9432 14.8125 94.4432 16.8068 93.4432 18.4773C92.4432 20.1364 90.9943 21.4091 89.0966 22.2955C87.2102 23.1818 84.9261 23.625 82.2443 23.625H73.0227V17.6932H81.0511C82.4602 17.6932 83.6307 17.5 84.5625 17.1136C85.4943 16.7273 86.1875 16.1477 86.642 15.375C87.108 14.6023 87.3409 13.642 87.3409 12.4943C87.3409 11.3352 87.108 10.358 86.642 9.5625C86.1875 8.76704 85.4886 8.16477 84.5455 7.75568C83.6136 7.33523 82.4375 7.125 81.017 7.125H76.0398V36H68.6591ZM87.5114 20.1136L96.1875 36H88.0398L79.5511 20.1136H87.5114ZM98.8295 7.17614V1.09091H127.5V7.17614H116.812V36H109.517V7.17614H98.8295ZM132.222 36V1.09091H155.335V7.17614H139.602V15.4943H153.801V21.5795H139.602V36H132.222ZM192.379 18.5455C192.379 22.3523 191.658 25.5909 190.214 28.2614C188.783 30.9318 186.828 32.9716 184.351 34.3807C181.885 35.7784 179.112 36.4773 176.033 36.4773C172.93 36.4773 170.146 35.7727 167.68 34.3636C165.214 32.9545 163.266 30.9148 161.834 28.2443C160.402 25.5739 159.686 22.3409 159.686 18.5455C159.686 14.7386 160.402 11.5 161.834 8.82955C163.266 6.15909 165.214 4.125 167.68 2.72727C170.146 1.31818 172.93 0.613635 176.033 0.613635C179.112 0.613635 181.885 1.31818 184.351 2.72727C186.828 4.125 188.783 6.15909 190.214 8.82955C191.658 11.5 192.379 14.7386 192.379 18.5455ZM184.896 18.5455C184.896 16.0795 184.527 14 183.788 12.3068C183.061 10.6136 182.033 9.32955 180.703 8.45455C179.374 7.57955 177.817 7.14205 176.033 7.14205C174.249 7.14205 172.692 7.57955 171.362 8.45455C170.033 9.32955 168.999 10.6136 168.26 12.3068C167.533 14 167.169 16.0795 167.169 18.5455C167.169 21.0114 167.533 23.0909 168.26 24.7841C168.999 26.4773 170.033 27.7614 171.362 28.6364C172.692 29.5114 174.249 29.9489 176.033 29.9489C177.817 29.9489 179.374 29.5114 180.703 28.6364C182.033 27.7614 183.061 26.4773 183.788 24.7841C184.527 23.0909 184.896 21.0114 184.896 18.5455ZM197.847 36V1.09091H205.227V29.9148H220.193V36H197.847ZM232.462 1.09091V36H225.081V1.09091H232.462ZM270.614 18.5455C270.614 22.3523 269.892 25.5909 268.449 28.2614C267.017 30.9318 265.063 32.9716 262.585 34.3807C260.119 35.7784 257.347 36.4773 254.267 36.4773C251.165 36.4773 248.381 35.7727 245.915 34.3636C243.449 32.9545 241.5 30.9148 240.068 28.2443C238.636 25.5739 237.92 22.3409 237.92 18.5455C237.92 14.7386 238.636 11.5 240.068 8.82955C241.5 6.15909 243.449 4.125 245.915 2.72727C248.381 1.31818 251.165 0.613635 254.267 0.613635C257.347 0.613635 260.119 1.31818 262.585 2.72727C265.063 4.125 267.017 6.15909 268.449 8.82955C269.892 11.5 270.614 14.7386 270.614 18.5455ZM263.131 18.5455C263.131 16.0795 262.761 14 262.023 12.3068C261.295 10.6136 260.267 9.32955 258.938 8.45455C257.608 7.57955 256.051 7.14205 254.267 7.14205C252.483 7.14205 250.926 7.57955 249.597 8.45455C248.267 9.32955 247.233 10.6136 246.494 12.3068C245.767 14 245.403 16.0795 245.403 18.5455C245.403 21.0114 245.767 23.0909 246.494 24.7841C247.233 26.4773 248.267 27.7614 249.597 28.6364C250.926 29.5114 252.483 29.9489 254.267 29.9489C256.051 29.9489 257.608 29.5114 258.938 28.6364C260.267 27.7614 261.295 26.4773 262.023 24.7841C262.761 23.0909 263.131 21.0114 263.131 18.5455Z" fill="white"/>
</svg>
